# xmcd
#
# Track frame offsets: 
#        150
#        15280
#        33075
#        52535
#        69416
#        86292
#        102590
#        119871
#        135570
#        153069
#        175921
#        192219
#        208580
#        224279
#
# Disc length: 3221 seconds
#
# Revision: 2
# Processed by: cddbd v1.5.2PL0 Copyright (c) Steve Scherf et al.
# Submitted via: ExactAudioCopyFreeDBPlugin 1.0
#
DISCID=af0c930e
DTITLE=Romas Dambrauskas ir grupe - Tarp ledo ir ugnies
DYEAR=2003
DGENRE=Pop
TTITLE0=Ji svetima
TTITLE1=Spinduliai
TTITLE2=Ilgesys
TTITLE3=Pakeliui i vasara
TTITLE4=Kur gi tu esi
TTITLE5=Saulej
TTITLE6=Laiskas
TTITLE7=Ne tau
TTITLE8=Moterims
TTITLE9=Uz meile
TTITLE10=Saulej (karaoke)
TTITLE11=Laiskas (karaoke)
TTITLE12=Ne tau (karaoke)
TTITLE13=Moterims (karaoke)
EXTD=
EXTT0=
EXTT1=
EXTT2=
EXTT3=
EXTT4=
EXTT5=
EXTT6=
EXTT7=
EXTT8=
EXTT9=
EXTT10=
EXTT11=
EXTT12=
EXTT13=
PLAYORDER=
